<?xml version="1.0" encoding="utf-8"?>
<!-- Generator: Adobe Illustrator 23.0.2, SVG Export Plug-In . SVG Version: 6.00 Build 0)  -->
<svg version="1.1" id="Layer_1" xmlns="http://www.w3.org/2000/svg" xmlns:xlink="http://www.w3.org/1999/xlink" x="0px" y="0px"
	 viewBox="0 0 76.3 50.1" style="enable-background:new 0 0 76.3 50.1;" xml:space="preserve">
<style type="text/css">
	.st0{fill:#666666;}
</style>
<g>
	<path class="st0" d="M12.4,49.6l11.8-10.4c0.9-0.8,0.8-2.1-0.1-2.9c-0.9-0.8-2.4-0.9-3.3-0.1l-7.5,6.6c1.2-7.8,5.5-15.1,5.5-15.2
		C29.7,7.4,53.9-1.4,73,7.8C74.1,8.3,75.5,8,76,7c0.1-0.1,0.1-0.2,0.1-0.3c0.3-0.9-0.2-2-1.3-2.5C53.5-6.2,26.5,3.4,14.6,25.5
		c-0.2,0.3-4.3,7.4-5.8,15.5l-4.5-7.3c-0.6-1-2.1-1.5-3.2-1c-1.1,0.5-1.5,1.7-0.9,2.8l8.4,13.6c0,0,0.1,0,0.1,0.1
		c0.1,0.2,0.3,0.4,0.5,0.5c0,0,0,0,0.1,0c0.2,0.1,0.4,0.3,0.6,0.3c0,0,0.1,0,0.1,0c0.1,0,0.1,0,0.2,0.1c0.2,0.1,0.4,0.1,0.6,0.1
		c0.1,0,0.2,0,0.2,0c0.3,0,0.5-0.1,0.8-0.2c0,0,0,0,0,0l0,0C12.1,49.8,12.2,49.7,12.4,49.6z"/>
</g>
</svg>
